<?xml version="1.0" encoding="utf-8"?>
<!-- Generator: Adobe Illustrator 16.0.3, SVG Export Plug-In . SVG Version: 6.00 Build 0)  -->
<!DOCTYPE svg PUBLIC "-//W3C//DTD SVG 1.1//EN" "http://www.w3.org/Graphics/SVG/1.1/DTD/svg11.dtd">
<svg version="1.1" id="Layer_1" xmlns="http://www.w3.org/2000/svg" xmlns:xlink="http://www.w3.org/1999/xlink" x="0px" y="0px"
	 width="1190.55px" height="841.89px" viewBox="0 0 1190.55 841.89" enable-background="new 0 0 1190.55 841.89"
	 xml:space="preserve">
<g>
	<g>
		<g>
			<g>
				<g>
					<path fill="#5BC5F2" d="M89.531,438.354H76.227v33.414H72.57v-71.094h3.656v34.227h13.102l22.344-34.227h4.367l-23.461,35.75
						l25.086,35.344h-4.672L89.531,438.354z"/>
				</g>
			</g>
			<g>
				<g>
					<path fill="#5BC5F2" d="M128.836,436.526c0-23.157,5.484-36.766,27.219-36.766s27.219,13.406,27.219,36.766
						c0,24.578-5.383,36.156-27.219,36.156C134.118,472.683,128.836,460.089,128.836,436.526z M179.415,436.526
						c0-21.024-4.266-33.313-23.359-33.313c-19.297,0-23.359,12.086-23.359,33.313c0,21.328,3.758,32.703,23.359,32.703
						S179.415,458.87,179.415,436.526z"/>
				</g>
			</g>
			<g>
				<g>
					<path fill="#5BC5F2" d="M199.83,400.674h7.82l24.883,65.508l25.086-65.508h7.719v71.094h-3.656v-67.641h-1.422l-25.289,65.508
						h-5.078l-24.984-65.508h-1.422v67.641h-3.656V400.674z"/>
				</g>
			</g>
			<g>
				<g>
					<path fill="#5BC5F2" d="M307.896,469.229c12.797,0,20.313-4.469,20.313-17.367v-51.188h3.656v51.188
						c0,15.234-8.734,20.82-23.969,20.82c-14.219,0-22.953-5.484-22.953-20.82v-51.188h3.656v51.188
						C288.599,464.659,296.013,469.229,307.896,469.229z"/>
				</g>
			</g>
			<g>
				<g>
					<path fill="#5BC5F2" d="M351.468,400.674h8.633l33.82,67.641h2.742v-67.641h3.656v71.094h-8.633l-33.922-67.641h-2.641v67.641
						h-3.656V400.674z"/>
				</g>
			</g>
			<g>
				<g>
					<path fill="#5BC5F2" d="M420.431,400.674h3.656v71.094h-3.656V400.674z"/>
				</g>
			</g>
			<path fill="#2D2E83" d="M461.159,438.354h-13.305v33.414h-3.656v-71.094h3.656v34.227h13.102l22.344-34.227h4.367l-23.461,35.75
				l25.086,35.344h-4.672L461.159,438.354z"/>
			<g>
				<g>
					<path fill="#5BC5F2" d="M519.761,400.674h10.766l21.633,70.891h-3.656l-6.805-21.633h-33.313l-6.805,21.836h-3.656
						L519.761,400.674z M509.401,446.479h31.281l-12.898-42.352H522.3L509.401,446.479z"/>
				</g>
			</g>
			<g>
				<g>
					<path fill="#5BC5F2" d="M605.684,470.651c0,0-10.766,2.031-18.789,2.031c-20.922,0-25.289-13.609-25.289-36.156
						c0-22.141,3.656-36.766,25.289-36.766c9.648,0,18.789,1.93,18.789,1.93l-0.305,3.555c0,0-10.258-2.031-18.484-2.031
						c-19.094,0-21.43,13.102-21.43,33.313c0,20.313,2.742,32.703,21.43,32.703c7.211,0,18.484-2.031,18.484-2.031L605.684,470.651z
						"/>
				</g>
			</g>
			<g>
				<g>
					<path fill="#5BC5F2" d="M631.48,461.104c0,18.078-5.484,18.078-17.672,18.078v-3.453c11.883,0,13.914,0,13.914-15.641v-59.516
						h3.656C631.379,422.104,631.48,439.37,631.48,461.104z"/>
				</g>
			</g>
			<g>
				<g>
					<path fill="#5BC5F2" d="M666.52,400.674h10.766l21.633,70.891h-3.656l-6.805-21.633h-33.313l-6.805,21.836h-3.656
						L666.52,400.674z M656.16,446.479h31.281l-12.898-42.352h-5.484L656.16,446.479z"/>
				</g>
			</g>
			<g>
				<g>
					<path fill="#5BC5F2" d="M773.465,404.737c0,0-13.914-1.727-19.805-1.727c-11.578,0-18.078,4.063-18.078,14.219
						c0,12.391,6.297,13.915,19.094,15.946c13.406,2.133,20.719,5.18,20.719,17.977c0,15.844-7.516,21.328-21.531,21.328
						c-7.617,0-21.734-1.625-21.734-1.625l0.406-3.555c0,0,14.016,1.727,21.227,1.727c11.578,0,17.773-4.875,17.773-17.57
						c0-10.359-5.281-12.695-17.773-14.625c-13.914-2.133-22.039-4.469-22.039-19.399c0-13.102,8.43-17.875,21.938-17.875
						c7.82,0,20.211,1.625,20.211,1.625L773.465,404.737z"/>
				</g>
			</g>
			<g>
				<g>
					<path fill="#5BC5F2" d="M812.873,469.229c12.797,0,20.313-4.469,20.313-17.367v-51.188h3.656v51.188
						c0,15.234-8.734,20.82-23.969,20.82c-14.219,0-22.953-5.484-22.953-20.82v-51.188h3.656v51.188
						C793.576,464.659,800.99,469.229,812.873,469.229z"/>
				</g>
			</g>
			<g>
				<g>
					<path fill="#5BC5F2" d="M873.406,438.354h-13.305v33.414h-3.656v-71.094h3.656v34.227h13.102l22.344-34.227h4.367
						l-23.461,35.75l25.086,35.344h-4.672L873.406,438.354z"/>
				</g>
			</g>
			<g>
				<g>
					<path fill="#5BC5F2" d="M956.587,470.651c0,0-10.766,2.031-18.789,2.031c-20.922,0-25.289-13.609-25.289-36.156
						c0-22.141,3.656-36.766,25.289-36.766c9.648,0,18.789,1.93,18.789,1.93l-0.305,3.555c0,0-10.258-2.031-18.484-2.031
						c-19.094,0-21.43,13.102-21.43,33.313c0,20.313,2.742,32.703,21.43,32.703c7.211,0,18.484-2.031,18.484-2.031L956.587,470.651z
						"/>
				</g>
			</g>
			<g>
				<g>
					<path fill="#5BC5F2" d="M971.619,400.674h41.539v3.453h-37.883v29.352h31.789v3.453h-31.789v31.383h37.883v3.453h-41.539
						V400.674z"/>
				</g>
			</g>
			<g>
				<g>
					<path fill="#5BC5F2" d="M1066.378,404.737c0,0-13.914-1.727-19.805-1.727c-11.578,0-18.078,4.063-18.078,14.219
						c0,12.391,6.297,13.915,19.094,15.946c13.406,2.133,20.719,5.18,20.719,17.977c0,15.844-7.516,21.328-21.531,21.328
						c-7.617,0-21.734-1.625-21.734-1.625l0.406-3.555c0,0,14.016,1.727,21.227,1.727c11.578,0,17.773-4.875,17.773-17.57
						c0-10.359-5.281-12.695-17.773-14.625c-13.914-2.133-22.039-4.469-22.039-19.399c0-13.102,8.43-17.875,21.938-17.875
						c7.82,0,20.211,1.625,20.211,1.625L1066.378,404.737z"/>
				</g>
			</g>
			<g>
				<g>
					<path fill="#5BC5F2" d="M1105.786,469.229c12.797,0,20.313-4.469,20.313-17.367v-51.188h3.656v51.188
						c0,15.234-8.734,20.82-23.969,20.82c-14.219,0-22.953-5.484-22.953-20.82v-51.188h3.656v51.188
						C1086.489,464.659,1093.903,469.229,1105.786,469.229z"/>
				</g>
			</g>
		</g>
	</g>
</g>
<line fill="none" stroke="#2D2E83" stroke-width="5.702" stroke-linecap="round" stroke-miterlimit="10" x1="67.682" y1="369.301" x2="1133.966" y2="369.301"/>
<g>
</g>
<g>
</g>
<g>
</g>
<g>
</g>
<g>
</g>
<g>
</g>
</svg>
